<?xml version="1.0" encoding="utf-8"?>
<!-- Generator: Adobe Illustrator 16.0.0, SVG Export Plug-In . SVG Version: 6.00 Build 0)  -->
<!DOCTYPE svg PUBLIC "-//W3C//DTD SVG 1.1//EN" "http://www.w3.org/Graphics/SVG/1.1/DTD/svg11.dtd">
<svg version="1.1" id="图层_1" xmlns="http://www.w3.org/2000/svg" xmlns:xlink="http://www.w3.org/1999/xlink" x="0px" y="0px"
	 width="160px" height="160px" viewBox="0 0 160 160" enable-background="new 0 0 160 160" xml:space="preserve">
<path fill="#FFFFFF" d="M79.437,76.888c0,0,13.503-1.816,22.341-8.476c0.061,0.302,9.444,0.908,4.601,4.238
	c0.605,0.303-6.677,6.054-20.441,10.897c1.371-2.725,1.371-3.936,1.371-3.936S80.647,81.126,79.437,76.888z M81.05,17.859
	c0.806-1.342,5.406-0.07,6.233-0.184c-4.03,3.596-0.976,5.641-1.025,5.66c4.885,2.246,3.953-4.348,3.879-4.568
	c6.655-0.608,7.563-6.658,7.26-7.566c-0.604-6.962,6.66-3.33,6.66-3.429c6.659-0.401-0.304,4.337-0.606,4.034
	c-2.725,2.119,0.606,4.238,0.303,3.632c3.633-5.146,15.438-7.87,15.136-8.324c3.936-1.968-13.319-6.811-13.924-7.114
	c-1.514,0.908-9.385,7.265-9.989,7.114c-4.541,3.481-8.78,0.151-9.385,0c3.936-3.784,0-7.114,0-7.114L69.244,14.227
	c0,0,0,6.962,0,6.66C72.876,25.73,81.354,17.859,81.05,17.859z M88.315,36.022c-6.175,5.013-0.605,16.952,0,16.044
	c2.421-2.724,5.448,0.605,6.043,0c8.767-1.21,6.974-14.228,6.913-18.768c-0.665-7.265-8.416-1.21-8.416-1.21H97.7l-0.304,6.357
	c0,0-3.329-0.303-3.95-0.606c-1.831,4.843,4.556,4.844,4.858,5.146c-0.304,3.33-4.541,3.027-4.858,3.027
	c-2.739,0.908-2.104-6.054-2.104-6.03C91.646,33.951,88.315,36.325,88.315,36.022z M76.509,49.947
	c-4.844-10.292,2.422-19.676,2.422-19.676c-0.302-7.265-4.843-3.027-4.843-3.027c-6.963,14.228-7.568,25.428-7.568,25.125
	C70.455,56.909,76.207,50.25,76.509,49.947z M117.881,100.803c-0.303,0.303,1.491,30.271-23.018,30.271
	c0.012,0.303-4.529-7.265-4.529-7.265s-5.448,13.622-10.897,9.687c0.302,0-4.238-6.054,0-8.173
	c0.302,0.303,13.621-13.018,12.108-22.4c0,0-12.108,4.15-25.73,31.286c0.302,0.195-8.779,0.801-6.963-5.859
	c0,0.303,14.53-16.951,18.466-25.729c0.302,0-2.54-6.506-1.211-8.779c0,0,1.816-6.055,5.146,0c0.605,0.908,1.979,8.779,2.2,9.688
	c0.222,0,12.026-0.908,16.265-16.347c0.304-0.303,3.33-6.054,6.963,0c0.303,1.211,0,8.778,0,8.778S114.854,94.446,117.881,100.803z
	 M106.703,103.527c-6.055-10.293-12.108,16.951-12.108,16.951c-0.605,8.477,6.055,6.054,6.055,5.752
	C111.85,115.938,106.4,104.436,106.703,103.527z M116.165,19.07c-13.32-4.843-32.693,12.411-32.693,12.411
	c-1.714,1.427,1.3,1.509,1.515,1.513c10.083-8.145,18.465-11.2,18.767-10.897c6.962-3.33,6.963,9.082,7.568,8.173
	c-0.303,1.816,1.816,23.611,1.816,23.678c-1.816,6.424-16.346,5.382-16.952,5.382c-5.146-0.908-4.843,0.606-4.843,0.908
	c14.53,7.871,27.849,0,28.253,0c-1.108-8.476-3.129-30.271-3.431-30.271C123.732,20.584,116.467,19.373,116.165,19.07z
	 M58.74,82.567c-0.115,4.761-1.65,7.16-4.601,7.199c-2.148,0.045-3.609-1.312-4.387-4.068l-7.397,5.158
	c-0.34,0.331-0.509,0.665-0.512,1.002l-0.605-0.007l0.053-5.231l8.102-5.253l0.007-0.705l-5.031-0.05
	c-0.94-0.009-1.546,0.118-1.815,0.384c-0.27,0.13-0.477,0.733-0.622,1.805l-0.604-0.006l0.087-8.653l0.603,0.006
	c0.056,1.007,0.218,1.612,0.485,1.816c0.333,0.271,0.967,0.413,1.907,0.422L55.781,76.5c0.939,0.009,1.578-0.152,1.917-0.484
	c0.27-0.199,0.443-0.768,0.521-1.706l0.604,0.006L58.74,82.567z M56.846,80.736l-6.641-0.066c-0.02,1.877,0.236,3.123,0.768,3.731
	c0.528,0.676,1.564,1.021,3.109,1.038c2.479,0.024,3.731-1.004,3.753-3.083C57.981,81.15,57.652,80.609,56.846,80.736z
	 M53.354,98.01c-0.032,3.086-1.994,4.71-5.885,4.873l0.065-6.541c-3.221,0.102-4.841,1.125-4.861,3.072
	c-0.011,1.071,0.549,2.05,1.681,2.935l-0.408,0.6c-2.066-1.43-3.054-3.15-2.968-5.162c0.235-3.353,2.298-5.076,6.189-5.171
	C51.055,92.854,53.118,94.652,53.354,98.01z M48.439,96.251l-0.035,3.421c1.409,0.014,2.382-0.044,2.921-0.173
	c0.807-0.261,1.214-0.728,1.22-1.396C52.692,96.897,51.322,96.279,48.439,96.251z M53.25,108.273
	c-0.108-2.618-1.369-4.005-3.782-4.163c-2.016,0.314-3.336,1.509-3.96,3.583c-0.755,1.669-1.502,2.501-2.239,2.494
	c-1.072-0.147-1.636-0.756-1.692-1.829c0.085-1.945,1.239-3.142,3.457-3.588l0.008-0.806l-4.025-0.039l-0.007,0.704
	c0.333,0.204,0.499,0.44,0.496,0.709c-0.001,0.066-0.036,0.233-0.105,0.502c-0.347,1.203-0.524,2.108-0.53,2.711
	c0.11,2.551,1.37,3.905,3.783,4.063c2.15-0.314,3.469-1.474,3.96-3.482c0.82-1.603,1.599-2.398,2.338-2.392
	c0.938,0.075,1.436,0.618,1.494,1.625c-0.083,1.474-1.1,2.538-3.051,3.189l-0.007,0.604l3.824,0.038l0.006-0.604
	c-0.402-0.003-0.602-0.207-0.598-0.609c0-0.136,0.07-0.401,0.209-0.804C53.105,109.379,53.246,108.742,53.25,108.273z
	 M44.092,118.547l8.754,0.087l0.048-4.829l-0.604-0.006c-0.077,1.006-0.584,1.436-1.523,1.293l-6.54-0.065
	c-2.283,0.044-3.434,1.174-3.455,3.388c-0.012,1.14,0.412,2.318,1.272,3.534c0.065,0.067,0.132,0.136,0.2,0.203l-1.409-0.013
	c0.194,0.738,0.348,2.049,0.464,3.929c0.062,0.402,0.094,0.737,0.091,1.007l0.604,0.006c-0.059-1.008,0.45-1.473,1.522-1.395
	l9.258,0.093l0.051-5.132l-0.604-0.005c0,0.065-0.002,0.133-0.002,0.2c-0.145,0.938-0.652,1.403-1.523,1.395l-7.345-0.073
	c-0.732-0.746-1.093-1.454-1.085-2.125C42.277,118.966,42.885,118.468,44.092,118.547z M52.967,136.749
	c0.016-1.609-0.676-2.824-2.077-3.644l0.002-0.101l1.811,0.018l0.049-4.93l-0.604-0.005c-0.009,1.005-0.518,1.469-1.523,1.393
	l-7.546-0.075c-1.007,0.057-1.54-0.418-1.596-1.424l-0.604-0.007l-0.062,6.238l0.604,0.006c0.075-0.872,0.582-1.27,1.522-1.192
	l6.841,0.068c0.934,0.545,1.43,1.255,1.489,2.128c-0.01,1.006-0.719,1.468-2.127,1.388l-6.238-0.062
	c-0.941,0.057-1.44-0.351-1.497-1.222l-0.604-0.006l-0.06,6.036l0.604,0.006c0.074-0.871,0.582-1.269,1.521-1.191l6.841,0.068
	c0.934,0.545,1.43,1.254,1.488,2.128c-0.009,1.006-0.718,1.467-2.127,1.388l-6.238-0.062c-0.942,0.057-1.44-0.384-1.497-1.323
	l-0.603-0.005l-0.062,6.137l0.604,0.006c0.009-0.872,0.516-1.269,1.521-1.192l6.439,0.064c2.281-0.045,3.5-1.207,3.657-3.486
	c0.08-1.407-0.644-2.69-2.175-3.845C52.201,139.525,52.951,138.425,52.967,136.749z M52.785,155.062
	c-0.031,3.086-1.993,4.71-5.885,4.873l0.064-6.54c-3.221,0.102-4.84,1.124-4.86,3.071c-0.011,1.072,0.548,2.051,1.682,2.935
	l-0.409,0.6c-2.066-1.43-3.054-3.15-2.969-5.162c0.235-3.353,2.298-5.076,6.19-5.17C50.487,149.907,52.55,151.704,52.785,155.062z
	 M47.871,153.303l-0.034,3.421c1.408,0.015,2.381-0.044,2.92-0.172c0.808-0.261,1.214-0.728,1.221-1.396
	C52.124,153.949,50.755,153.331,47.871,153.303z"/>
</svg>
